<svg width="60" height="60" viewBox="0 0 60 60" fill="none" xmlns="http://www.w3.org/2000/svg">
<g clip-path="url(#clip0_722_2)">
<path fill-rule="evenodd" clip-rule="evenodd" d="M3.75 30C3.75 36.9619 6.51562 43.6387 11.4384 48.5616C16.3613 53.4844 23.0381 56.25 30 56.25C36.9619 56.25 43.6387 53.4844 48.5616 48.5616C53.4844 43.6387 56.25 36.9619 56.25 30C56.25 23.0381 53.4844 16.3613 48.5616 11.4384C43.6387 6.51562 36.9619 3.75 30 3.75C23.0381 3.75 16.3613 6.51562 11.4384 11.4384C6.51562 16.3613 3.75 23.0381 3.75 30ZM60 30C60 37.9565 56.8393 45.5871 51.2132 51.2132C45.5871 56.8393 37.9565 60 30 60C22.0435 60 14.4129 56.8393 8.7868 51.2132C3.16071 45.5871 0 37.9565 0 30C0 22.0435 3.16071 14.4129 8.7868 8.7868C14.4129 3.16071 22.0435 0 30 0C37.9565 0 45.5871 3.16071 51.2132 8.7868C56.8393 14.4129 60 22.0435 60 30ZM31.875 43.125C31.875 43.6223 31.6775 44.0992 31.3258 44.4508C30.9742 44.8025 30.4973 45 30 45C29.5027 45 29.0258 44.8025 28.6742 44.4508C28.3225 44.0992 28.125 43.6223 28.125 43.125V21.4012L20.0775 29.4525C19.7254 29.8046 19.2479 30.0024 18.75 30.0024C18.2521 30.0024 17.7746 29.8046 17.4225 29.4525C17.0704 29.1004 16.8726 28.6229 16.8726 28.125C16.8726 27.6271 17.0704 27.1496 17.4225 26.7975L28.6725 15.5475C28.8467 15.3729 29.0536 15.2344 29.2814 15.1398C29.5092 15.0453 29.7534 14.9966 30 14.9966C30.2466 14.9966 30.4908 15.0453 30.7186 15.1398C30.9464 15.2344 31.1533 15.3729 31.3275 15.5475L42.5775 26.7975C42.9296 27.1496 43.1274 27.6271 43.1274 28.125C43.1274 28.6229 42.9296 29.1004 42.5775 29.4525C42.2254 29.8046 41.7479 30.0024 41.25 30.0024C40.7521 30.0024 40.2746 29.8046 39.9225 29.4525L31.875 21.4012V43.125Z" fill="#6574CD"/>
</g>
<defs>
<clipPath id="clip0_722_2">
<rect width="60" height="60" fill="white"/>
</clipPath>
</defs>
</svg>
