<svg width="60" height="60" viewBox="0 0 60 60" fill="none" xmlns="http://www.w3.org/2000/svg">
<g clip-path="url(#clip0_713_867)">
<path fill-rule="evenodd" clip-rule="evenodd" d="M0.644678 59.3552C0.996292 59.7067 1.47312 59.9041 1.9703 59.9041C2.46749 59.9041 2.94431 59.7067 3.29593 59.3552L18.6559 43.9952V54.3752C18.6559 54.8724 18.8535 55.3494 19.2051 55.701C19.5567 56.0526 20.0336 56.2502 20.5309 56.2502C21.0282 56.2502 21.5051 56.0526 21.8568 55.701C22.2084 55.3494 22.4059 54.8724 22.4059 54.3752V39.4689C22.4059 38.9716 22.2084 38.4947 21.8568 38.1431C21.5051 37.7915 21.0282 37.5939 20.5309 37.5939H5.62468C5.1274 37.5939 4.65048 37.7915 4.29885 38.1431C3.94722 38.4947 3.74968 38.9716 3.74968 39.4689C3.74968 39.9662 3.94722 40.4431 4.29885 40.7947C4.65048 41.1464 5.1274 41.3439 5.62468 41.3439H16.0047L0.644678 56.7039C0.29317 57.0555 0.0957031 57.5324 0.0957031 58.0295C0.0957031 58.5267 0.29317 59.0036 0.644678 59.3552ZM59.3547 0.645166C59.0031 0.293658 58.5262 0.0961914 58.0291 0.0961914C57.5319 0.0961914 57.055 0.293658 56.7034 0.645166L41.3434 16.0052V5.62517C41.3434 5.12789 41.1459 4.65097 40.7943 4.29934C40.4426 3.94771 39.9657 3.75017 39.4684 3.75017C38.9711 3.75017 38.4942 3.94771 38.1426 4.29934C37.791 4.65097 37.5934 5.12789 37.5934 5.62517V20.5314C37.5934 21.0287 37.791 21.5056 38.1426 21.8572C38.4942 22.2089 38.9711 22.4064 39.4684 22.4064H54.3747C54.872 22.4064 55.3489 22.2089 55.7005 21.8572C56.0521 21.5056 56.2497 21.0287 56.2497 20.5314C56.2497 20.0341 56.0521 19.5572 55.7005 19.2056C55.3489 18.854 54.872 18.6564 54.3747 18.6564H43.9947L59.3547 3.29642C59.7062 2.9448 59.9037 2.46797 59.9037 1.97079C59.9037 1.47361 59.7062 0.996781 59.3547 0.645166Z" fill="#6574CD"/>
</g>
<defs>
<clipPath id="clip0_713_867">
<rect width="60" height="60" fill="white"/>
</clipPath>
</defs>
</svg>
