<svg width="60" height="60" viewBox="0 0 60 60" fill="none" xmlns="http://www.w3.org/2000/svg">
<path d="M43.2526 26.25H57.9976C58.1757 26.25 58.3501 26.3009 58.5004 26.3965C58.6507 26.4921 58.7707 26.6286 58.8462 26.7899C58.9218 26.9512 58.9498 27.1307 58.927 27.3074C58.9042 27.4841 58.8316 27.6506 58.7176 27.7875L51.3451 36.6375C51.2571 36.743 51.147 36.8279 51.0226 36.8861C50.8982 36.9444 50.7625 36.9745 50.6251 36.9745C50.4877 36.9745 50.352 36.9444 50.2276 36.8861C50.1032 36.8279 49.9931 36.743 49.9051 36.6375L42.5326 27.7875C42.4186 27.6506 42.3459 27.4841 42.3231 27.3074C42.3003 27.1307 42.3284 26.9512 42.4039 26.7899C42.4795 26.6286 42.5994 26.4921 42.7497 26.3965C42.9 26.3009 43.0744 26.25 43.2526 26.25ZM2.00258 33.75H16.7476C16.9257 33.7499 17.1002 33.6991 17.2505 33.6035C17.4008 33.5078 17.5207 33.3714 17.5962 33.2101C17.6718 33.0487 17.6998 32.8692 17.677 32.6925C17.6542 32.5159 17.5816 32.3493 17.4676 32.2125L10.0951 23.3625C10.0071 23.257 9.897 23.1721 9.77258 23.1138C9.64816 23.0556 9.51246 23.0254 9.37508 23.0254C9.2377 23.0254 9.102 23.0556 8.97758 23.1138C8.85316 23.1721 8.74306 23.257 8.65508 23.3625L1.28258 32.2125C1.16857 32.3493 1.09592 32.5159 1.07313 32.6925C1.05035 32.8692 1.07837 33.0487 1.15391 33.2101C1.22946 33.3714 1.34941 33.5078 1.49971 33.6035C1.65001 33.6991 1.82444 33.7499 2.00258 33.75Z" fill="#6574CD"/>
<path fill-rule="evenodd" clip-rule="evenodd" d="M30.0003 11.25C24.1803 11.25 18.9753 13.9013 15.5365 18.0675C15.383 18.2665 15.191 18.4327 14.9719 18.556C14.7529 18.6793 14.5113 18.7574 14.2615 18.7854C14.0117 18.8135 13.7588 18.7911 13.5178 18.7195C13.2769 18.6479 13.0528 18.5285 12.8589 18.3686C12.665 18.2086 12.5052 18.0113 12.3891 17.7884C12.2729 17.5654 12.2028 17.3214 12.1829 17.0708C12.163 16.8202 12.1936 16.5682 12.2731 16.3297C12.3525 16.0912 12.4791 15.8711 12.6453 15.6825C15.391 12.3582 19.0337 9.89256 23.1403 8.57873C27.2468 7.26489 31.6443 7.15821 35.8097 8.27135C39.9751 9.3845 43.7331 11.6706 46.6368 14.8578C49.5405 18.0451 51.4676 21.9992 52.189 26.25H48.3753C47.5108 22.0149 45.2096 18.2085 41.8612 15.4751C38.5127 12.7417 34.3227 11.2491 30.0003 11.25ZM11.6253 33.75C12.3352 37.2174 14.0116 40.4131 16.4608 42.968C18.91 45.523 22.0321 47.3329 25.4664 48.1886C28.9006 49.0443 32.5069 48.911 35.8686 47.8039C39.2303 46.6969 42.2102 44.6614 44.464 41.9325C44.6176 41.7335 44.8096 41.5674 45.0286 41.444C45.2477 41.3207 45.4893 41.2427 45.7391 41.2146C45.9889 41.1865 46.2418 41.2089 46.4827 41.2806C46.7237 41.3522 46.9478 41.4715 47.1417 41.6315C47.3356 41.7914 47.4954 41.9887 47.6115 42.2117C47.7276 42.4346 47.7977 42.6787 47.8176 42.9292C47.8376 43.1798 47.8069 43.4319 47.7275 43.6703C47.648 43.9088 47.5215 44.1289 47.3553 44.3175C44.6096 47.6418 40.9668 50.1075 36.8603 51.4213C32.7538 52.7351 28.3563 52.8418 24.1909 51.7287C20.0255 50.6155 16.2674 48.3294 13.3637 45.1422C10.46 41.955 8.5329 38.0008 7.81152 33.75H11.6253Z" fill="#6574CD"/>
</svg>
