<svg width="60" height="60" viewBox="0 0 60 60" fill="none" xmlns="http://www.w3.org/2000/svg">
<path d="M30 59.9999C31.9891 59.9999 33.8968 59.2097 35.3033 57.8032C36.7098 56.3966 37.5 54.489 37.5 52.4999H22.5C22.5 54.489 23.2902 56.3966 24.6967 57.8032C26.1032 59.2097 28.0109 59.9999 30 59.9999ZM30 7.19236L27.0113 7.79611C23.6205 8.48555 20.5723 10.3261 18.3833 13.0058C16.1942 15.6855 14.999 19.0397 15 22.4999C15 24.8549 14.4975 30.7386 13.2787 36.5324C12.6787 39.4086 11.8688 42.4049 10.7925 44.9999H49.2075C48.1312 42.4049 47.325 39.4124 46.7212 36.5324C45.5025 30.7386 45 24.8549 45 22.4999C45.0002 19.0403 43.8045 15.6871 41.6156 13.0081C39.4266 10.3291 36.3789 8.48918 32.9887 7.79986L30 7.19236ZM53.325 44.9999C54.1613 46.6761 55.1288 48.0036 56.25 48.7499H3.75C4.87125 48.0036 5.83875 46.6761 6.675 44.9999C10.05 38.2499 11.25 25.7999 11.25 22.4999C11.25 13.4249 17.7 5.84986 26.2688 4.12111C26.2164 3.59969 26.2739 3.07309 26.4376 2.57526C26.6013 2.07744 26.8675 1.61945 27.2191 1.23083C27.5706 0.842212 27.9998 0.531593 28.4787 0.319005C28.9577 0.106418 29.476 -0.00341797 30 -0.00341797C30.524 -0.00341797 31.0423 0.106418 31.5213 0.319005C32.0002 0.531593 32.4294 0.842212 32.7809 1.23083C33.1325 1.61945 33.3987 2.07744 33.5624 2.57526C33.7261 3.07309 33.7836 3.59969 33.7312 4.12111C37.9705 4.98193 41.7816 7.28204 44.5188 10.6316C47.256 13.9812 48.7509 18.1741 48.75 22.4999C48.75 25.7999 49.95 38.2499 53.325 44.9999Z" fill="#6574CD"/>
</svg>
