<svg width="60" height="60" viewBox="0 0 60 60" fill="none" xmlns="http://www.w3.org/2000/svg">
<g clip-path="url(#clip0_713_857)">
<path d="M4.35331 30C4.35331 35.0728 5.85746 40.0316 8.67559 44.2496C11.4937 48.4676 15.4993 51.7552 20.1857 53.6968C24.8722 55.6384 30.0292 56.1468 35.0046 55.1577C39.98 54.1686 44.5504 51.7264 48.1379 48.1399C51.7255 44.5535 54.169 39.9838 55.1595 35.0087C56.1501 30.0335 55.6432 24.8764 53.703 20.1894C51.7627 15.5023 48.4763 11.4958 44.2591 8.67645C40.042 5.85709 35.0836 4.35148 30.0108 4.35C29.434 4.35 28.8807 4.12085 28.4728 3.71296C28.065 3.30507 27.8358 2.75185 27.8358 2.175C27.8358 1.59815 28.065 1.04493 28.4728 0.637043C28.8807 0.229151 29.434 0 30.0108 0C36.7264 0.00197715 43.2472 2.25719 48.5292 6.40458C53.8111 10.552 57.5487 16.3517 59.1436 22.8752C60.7386 29.3987 60.0986 36.2687 57.326 42.3853C54.5535 48.5019 49.8089 53.5114 43.8518 56.6117C37.8946 59.7121 31.0695 60.7239 24.469 59.4854C17.8686 58.2468 11.8746 54.8294 7.44671 49.7803C3.0188 44.7312 0.413058 38.3424 0.0466571 31.6368C-0.319743 24.9311 1.57439 18.2965 5.42581 12.795L2.93956 10.6313C2.64259 10.373 2.42123 10.0391 2.29908 9.66503C2.17692 9.29095 2.15855 8.89074 2.24591 8.50704C2.33327 8.12334 2.5231 7.77052 2.79516 7.4862C3.06722 7.20187 3.41133 6.99668 3.79081 6.8925L13.2408 4.305C13.586 4.21082 13.9491 4.20325 14.2979 4.28296C14.6467 4.36268 14.9704 4.52721 15.2405 4.76198C15.5105 4.99675 15.7184 5.29451 15.8458 5.62886C15.9732 5.96321 16.0161 6.32383 15.9708 6.67875L14.7258 16.3988C14.6758 16.7894 14.5208 17.1591 14.2771 17.4685C14.0334 17.7779 13.7104 18.0153 13.3423 18.1555C12.9743 18.2956 12.5751 18.3332 12.1874 18.2642C11.7996 18.1952 11.4379 18.0222 11.1408 17.7637L8.72956 15.6638C5.86619 19.8957 4.34024 24.8903 4.34956 30H4.35331Z" fill="#6574CD"/>
<path d="M24.9037 43.7663V33.1613H30.7913L36.4087 43.7663H41.3362L35.1637 32.4938C38.5275 31.3688 40.515 28.3463 40.515 24.6188C40.515 19.4813 36.9787 16.1963 31.305 16.1963H20.625V43.7663H24.9037ZM24.9037 29.7038V19.7888H30.7913C34.095 19.7888 36.1012 21.66 36.1012 24.7388C36.1012 27.8888 34.2112 29.7038 30.9038 29.7038H24.9037Z" fill="#6574CD"/>
</g>
<defs>
<clipPath id="clip0_713_857">
<rect width="60" height="60" fill="white"/>
</clipPath>
</defs>
</svg>
