<svg width="70" height="70" viewBox="0 0 70 70" fill="none" xmlns="http://www.w3.org/2000/svg">
<path d="M64.5881 0.327611C64.905 0.523586 65.1666 0.797248 65.348 1.12265C65.5295 1.44805 65.6248 1.81441 65.625 2.18699V67.812C65.625 68.3921 65.3945 68.9485 64.9843 69.3588C64.5741 69.769 64.0177 69.9995 63.4375 69.9995H50.3125C49.7323 69.9995 49.1759 69.769 48.7657 69.3588C48.3555 68.9485 48.125 68.3921 48.125 67.812V61.2495H43.75V67.812C43.75 68.3921 43.5195 68.9485 43.1093 69.3588C42.6991 69.769 42.1427 69.9995 41.5625 69.9995H2.1875C1.60734 69.9995 1.05094 69.769 0.640704 69.3588C0.230468 68.9485 0 68.3921 0 67.812V43.7495C0.000348455 43.2906 0.145023 42.8434 0.413547 42.4712C0.68207 42.099 1.06084 41.8208 1.49625 41.6757L26.25 33.4245V19.687C26.25 19.2811 26.363 18.8832 26.5762 18.5378C26.7895 18.1924 27.0946 17.9132 27.4575 17.7314L62.4575 0.231361C62.7913 0.0642612 63.1624 -0.0146186 63.5353 0.00222898C63.9083 0.0190766 64.2707 0.131091 64.5881 0.327611ZM26.25 38.0357L4.375 45.3245V65.6245H26.25V38.0357ZM30.625 65.6245H39.375V59.062C39.375 58.4818 39.6055 57.9254 40.0157 57.5152C40.4259 57.105 40.9823 56.8745 41.5625 56.8745H50.3125C50.8927 56.8745 51.4491 57.105 51.8593 57.5152C52.2695 57.9254 52.5 58.4818 52.5 59.062V65.6245H61.25V5.72636L30.625 21.0389V65.6245Z" fill="#6574CD"/>
<path d="M8.75 48.125H13.125V52.5H8.75V48.125ZM17.5 48.125H21.875V52.5H17.5V48.125ZM8.75 56.875H13.125V61.25H8.75V56.875ZM17.5 56.875H21.875V61.25H17.5V56.875ZM35 39.375H39.375V43.75H35V39.375ZM43.75 39.375H48.125V43.75H43.75V39.375ZM35 48.125H39.375V52.5H35V48.125ZM43.75 48.125H48.125V52.5H43.75V48.125ZM52.5 39.375H56.875V43.75H52.5V39.375ZM52.5 48.125H56.875V52.5H52.5V48.125ZM35 30.625H39.375V35H35V30.625ZM43.75 30.625H48.125V35H43.75V30.625ZM52.5 30.625H56.875V35H52.5V30.625ZM35 21.875H39.375V26.25H35V21.875ZM43.75 21.875H48.125V26.25H43.75V21.875ZM52.5 21.875H56.875V26.25H52.5V21.875ZM52.5 13.125H56.875V17.5H52.5V13.125Z" fill="#6574CD"/>
</svg>
