<svg width="60" height="60" viewBox="0 0 60 60" fill="none" xmlns="http://www.w3.org/2000/svg">
<g clip-path="url(#clip0_778_356)">
<path d="M20.625 35.6662C20.91 39.2437 23.7375 42.03 28.8075 42.36V45H31.0575V42.3413C36.3075 41.9738 39.375 39.1688 39.375 35.0963C39.375 31.395 37.0275 29.4862 32.8313 28.4962L31.0575 28.0762V20.8875C33.3075 21.1425 34.74 22.3725 35.085 24.075H39.03C38.745 20.6288 35.79 17.9325 31.0575 17.64V15H28.8075V17.6962C24.3263 18.135 21.27 20.8313 21.27 24.645C21.27 28.02 23.5425 30.165 27.3187 31.0463L28.8075 31.4137V39.0413C26.5013 38.6925 24.975 37.4287 24.63 35.6662H20.625ZM28.7888 27.5437C26.5763 27.03 25.3763 25.9837 25.3763 24.4087C25.3763 22.6462 26.67 21.3263 28.8075 20.94V27.54L28.7888 27.5437ZM31.3838 32.0175C34.0725 32.64 35.3137 33.6487 35.3137 35.43C35.3137 37.4625 33.7687 38.8575 31.0575 39.1125V31.9425L31.3838 32.0175Z" fill="#6574CD"/>
<path d="M30 56.25C23.0381 56.25 16.3613 53.4844 11.4384 48.5616C6.51562 43.6387 3.75 36.9619 3.75 30C3.75 23.0381 6.51562 16.3613 11.4384 11.4384C16.3613 6.51562 23.0381 3.75 30 3.75C36.9619 3.75 43.6387 6.51562 48.5616 11.4384C53.4844 16.3613 56.25 23.0381 56.25 30C56.25 36.9619 53.4844 43.6387 48.5616 48.5616C43.6387 53.4844 36.9619 56.25 30 56.25ZM30 60C37.9565 60 45.5871 56.8393 51.2132 51.2132C56.8393 45.5871 60 37.9565 60 30C60 22.0435 56.8393 14.4129 51.2132 8.7868C45.5871 3.16071 37.9565 0 30 0C22.0435 0 14.4129 3.16071 8.7868 8.7868C3.16071 14.4129 0 22.0435 0 30C0 37.9565 3.16071 45.5871 8.7868 51.2132C14.4129 56.8393 22.0435 60 30 60Z" fill="#6574CD"/>
<path d="M30 50.625C24.5299 50.625 19.2839 48.452 15.4159 44.5841C11.548 40.7161 9.375 35.4701 9.375 30C9.375 24.5299 11.548 19.2839 15.4159 15.4159C19.2839 11.548 24.5299 9.375 30 9.375C35.4701 9.375 40.7161 11.548 44.5841 15.4159C48.452 19.2839 50.625 24.5299 50.625 30C50.625 35.4701 48.452 40.7161 44.5841 44.5841C40.7161 48.452 35.4701 50.625 30 50.625ZM30 52.5C32.9547 52.5 35.8806 51.918 38.6104 50.7873C41.3402 49.6566 43.8206 47.9992 45.9099 45.9099C47.9992 43.8206 49.6566 41.3402 50.7873 38.6104C51.918 35.8806 52.5 32.9547 52.5 30C52.5 27.0453 51.918 24.1194 50.7873 21.3896C49.6566 18.6598 47.9992 16.1794 45.9099 14.0901C43.8206 12.0008 41.3402 10.3434 38.6104 9.21271C35.8806 8.08198 32.9547 7.5 30 7.5C24.0326 7.5 18.3097 9.87053 14.0901 14.0901C9.87053 18.3097 7.5 24.0326 7.5 30C7.5 35.9674 9.87053 41.6903 14.0901 45.9099C18.3097 50.1295 24.0326 52.5 30 52.5Z" fill="#6574CD"/>
</g>
<defs>
<clipPath id="clip0_778_356">
<rect width="60" height="60" fill="white"/>
</clipPath>
</defs>
</svg>
