<svg width="80" height="80" viewBox="0 0 80 80" fill="none" xmlns="http://www.w3.org/2000/svg">
<g clip-path="url(#clip0_697_2)">
<path d="M72.5 15C73.163 15 73.7989 15.2634 74.2678 15.7322C74.7366 16.2011 75 16.837 75 17.5V62.5C75 63.163 74.7366 63.7989 74.2678 64.2678C73.7989 64.7366 73.163 65 72.5 65H7.5C6.83696 65 6.20107 64.7366 5.73223 64.2678C5.26339 63.7989 5 63.163 5 62.5V17.5C5 16.837 5.26339 16.2011 5.73223 15.7322C6.20107 15.2634 6.83696 15 7.5 15H72.5ZM7.5 10C5.51088 10 3.60322 10.7902 2.1967 12.1967C0.790176 13.6032 0 15.5109 0 17.5L0 62.5C0 64.4891 0.790176 66.3968 2.1967 67.8033C3.60322 69.2098 5.51088 70 7.5 70H72.5C74.4891 70 76.3968 69.2098 77.8033 67.8033C79.2098 66.3968 80 64.4891 80 62.5V17.5C80 15.5109 79.2098 13.6032 77.8033 12.1967C76.3968 10.7902 74.4891 10 72.5 10H7.5Z" fill="#6574CD"/>
<path d="M25 40C25 39.337 25.2634 38.7011 25.7322 38.2322C26.2011 37.7634 26.837 37.5 27.5 37.5H62.5C63.163 37.5 63.7989 37.7634 64.2678 38.2322C64.7366 38.7011 65 39.337 65 40C65 40.663 64.7366 41.2989 64.2678 41.7678C63.7989 42.2366 63.163 42.5 62.5 42.5H27.5C26.837 42.5 26.2011 42.2366 25.7322 41.7678C25.2634 41.2989 25 40.663 25 40ZM25 27.5C25 26.837 25.2634 26.2011 25.7322 25.7322C26.2011 25.2634 26.837 25 27.5 25H62.5C63.163 25 63.7989 25.2634 64.2678 25.7322C64.7366 26.2011 65 26.837 65 27.5C65 28.163 64.7366 28.7989 64.2678 29.2678C63.7989 29.7366 63.163 30 62.5 30H27.5C26.837 30 26.2011 29.7366 25.7322 29.2678C25.2634 28.7989 25 28.163 25 27.5ZM25 52.5C25 51.837 25.2634 51.2011 25.7322 50.7322C26.2011 50.2634 26.837 50 27.5 50H62.5C63.163 50 63.7989 50.2634 64.2678 50.7322C64.7366 51.2011 65 51.837 65 52.5C65 53.163 64.7366 53.7989 64.2678 54.2678C63.7989 54.7366 63.163 55 62.5 55H27.5C26.837 55 26.2011 54.7366 25.7322 54.2678C25.2634 53.7989 25 53.163 25 52.5ZM20 27.5C20 28.163 19.7366 28.7989 19.2678 29.2678C18.7989 29.7366 18.163 30 17.5 30C16.837 30 16.2011 29.7366 15.7322 29.2678C15.2634 28.7989 15 28.163 15 27.5C15 26.837 15.2634 26.2011 15.7322 25.7322C16.2011 25.2634 16.837 25 17.5 25C18.163 25 18.7989 25.2634 19.2678 25.7322C19.7366 26.2011 20 26.837 20 27.5ZM20 40C20 40.663 19.7366 41.2989 19.2678 41.7678C18.7989 42.2366 18.163 42.5 17.5 42.5C16.837 42.5 16.2011 42.2366 15.7322 41.7678C15.2634 41.2989 15 40.663 15 40C15 39.337 15.2634 38.7011 15.7322 38.2322C16.2011 37.7634 16.837 37.5 17.5 37.5C18.163 37.5 18.7989 37.7634 19.2678 38.2322C19.7366 38.7011 20 39.337 20 40ZM20 52.5C20 53.163 19.7366 53.7989 19.2678 54.2678C18.7989 54.7366 18.163 55 17.5 55C16.837 55 16.2011 54.7366 15.7322 54.2678C15.2634 53.7989 15 53.163 15 52.5C15 51.837 15.2634 51.2011 15.7322 50.7322C16.2011 50.2634 16.837 50 17.5 50C18.163 50 18.7989 50.2634 19.2678 50.7322C19.7366 51.2011 20 51.837 20 52.5Z" fill="#6574CD"/>
</g>
<defs>
<clipPath id="clip0_697_2">
<rect width="80" height="80" fill="white"/>
</clipPath>
</defs>
</svg>
