<svg width="60" height="60" viewBox="0 0 60 60" fill="none" xmlns="http://www.w3.org/2000/svg">
<g clip-path="url(#clip0_785_351)">
<path d="M29.9998 60.06C36.819 60.064 43.4075 57.5902 48.539 53.0991C53.6705 48.608 56.9955 42.4055 57.8952 35.6459C58.795 28.8863 57.2082 22.03 53.4301 16.353C49.6521 10.676 43.9401 6.56496 37.3573 4.785C37.5177 4.22646 37.5461 3.63828 37.4402 3.06688C37.3343 2.49549 37.0971 1.95652 36.7473 1.4925C36.3975 1.02848 35.9446 0.652111 35.4244 0.393097C34.9042 0.134084 34.3309 -0.000488241 33.7498 1.33101e-06H26.2498C25.6687 -0.000488241 25.0954 0.134084 24.5752 0.393097C24.055 0.652111 23.6021 1.02848 23.2523 1.4925C22.9024 1.95652 22.6652 2.49549 22.5594 3.06688C22.4535 3.63828 22.4819 4.22646 22.6423 4.785C16.0594 6.56496 10.3475 10.676 6.56945 16.353C2.7914 22.03 1.2046 28.8863 2.10436 35.6459C3.00411 42.4055 6.32913 48.608 11.4606 53.0991C16.5921 57.5902 23.1805 60.064 29.9998 60.06ZM54.3748 31.935C54.3748 38.3997 51.8067 44.5995 47.2355 49.1707C42.6643 53.7419 36.4644 56.31 29.9998 56.31C23.5351 56.31 17.3353 53.7419 12.7641 49.1707C8.19286 44.5995 5.62479 38.3997 5.62479 31.935C5.62479 25.4703 8.19286 19.2705 12.7641 14.6993C17.3353 10.1281 23.5351 7.56 29.9998 7.56C36.4644 7.56 42.6643 10.1281 47.2355 14.6993C51.8067 19.2705 54.3748 25.4703 54.3748 31.935Z" fill="#6574CD"/>
<path d="M26.0248 27.9001L44.5873 17.2876L33.9748 35.8501L15.416 46.4626L26.0248 27.9001Z" fill="#6574CD"/>
</g>
<defs>
<clipPath id="clip0_785_351">
<rect width="60" height="60" fill="white"/>
</clipPath>
</defs>
</svg>
