<svg width="60" height="60" viewBox="0 0 60 60" fill="none" xmlns="http://www.w3.org/2000/svg">
<g clip-path="url(#clip0_778_344)">
<path d="M31.875 37.5C30.84 37.5 30 35.82 30 33.75C30 31.68 30.84 30 31.875 30C32.91 30 33.75 31.68 33.75 33.75C33.75 35.82 32.91 37.5 31.875 37.5Z" fill="#6574CD"/>
<path d="M40.605 0.457583C40.8078 0.633845 40.9703 0.851636 41.0816 1.0962C41.1929 1.34076 41.2503 1.60639 41.25 1.87508V3.75008H43.125C44.6168 3.75008 46.0476 4.34272 47.1025 5.39761C48.1574 6.4525 48.75 7.88324 48.75 9.37508V56.2501H54.375C54.8723 56.2501 55.3492 56.4476 55.7008 56.7993C56.0525 57.1509 56.25 57.6278 56.25 58.1251C56.25 58.6224 56.0525 59.0993 55.7008 59.4509C55.3492 59.8025 54.8723 60.0001 54.375 60.0001H5.625C5.12772 60.0001 4.65081 59.8025 4.29917 59.4509C3.94754 59.0993 3.75 58.6224 3.75 58.1251C3.75 57.6278 3.94754 57.1509 4.29917 56.7993C4.65081 56.4476 5.12772 56.2501 5.625 56.2501H11.25V5.62508C11.2501 5.17333 11.4132 4.73679 11.7095 4.39574C12.0058 4.0547 12.4152 3.83208 12.8625 3.76883L39.1125 0.018833C39.3782 -0.0191097 39.6489 0.000425396 39.9064 0.0761179C40.1639 0.15181 40.4021 0.281896 40.605 0.457583ZM43.125 7.50008H41.25V56.2501H45V9.37508C45 8.8778 44.8025 8.40089 44.4508 8.04926C44.0992 7.69763 43.6223 7.50008 43.125 7.50008ZM15 7.25258V56.2501H37.5V4.03883L15 7.25258Z" fill="#6574CD"/>
</g>
<defs>
<clipPath id="clip0_778_344">
<rect width="60" height="60" fill="white"/>
</clipPath>
</defs>
</svg>
