<svg width="60" height="60" viewBox="0 0 60 60" fill="none" xmlns="http://www.w3.org/2000/svg">
<path d="M18.75 0H48.75C50.7391 0 52.6468 0.790176 54.0533 2.1967C55.4598 3.60322 56.25 5.51088 56.25 7.5V45C56.25 46.9891 55.4598 48.8968 54.0533 50.3033C52.6468 51.7098 50.7391 52.5 48.75 52.5C48.75 54.4891 47.9598 56.3968 46.5533 57.8033C45.1468 59.2098 43.2391 60 41.25 60H11.25C9.26088 60 7.35322 59.2098 5.9467 57.8033C4.54018 56.3968 3.75 54.4891 3.75 52.5H7.5C7.5 53.4946 7.89509 54.4484 8.59835 55.1516C9.30161 55.8549 10.2554 56.25 11.25 56.25H41.25C42.2446 56.25 43.1984 55.8549 43.9016 55.1516C44.6049 54.4484 45 53.4946 45 52.5V15C45 14.0054 44.6049 13.0516 43.9016 12.3483C43.1984 11.6451 42.2446 11.25 41.25 11.25H11.25C10.2554 11.25 9.30161 11.6451 8.59835 12.3483C7.89509 13.0516 7.5 14.0054 7.5 15H3.75C3.75 13.0109 4.54018 11.1032 5.9467 9.6967C7.35322 8.29018 9.26088 7.5 11.25 7.5H41.25C43.2391 7.5 45.1468 8.29018 46.5533 9.6967C47.9598 11.1032 48.75 13.0109 48.75 15V48.75C49.7446 48.75 50.6984 48.3549 51.4016 47.6516C52.1049 46.9484 52.5 45.9946 52.5 45V7.5C52.5 6.50544 52.1049 5.55161 51.4016 4.84835C50.6984 4.14509 49.7446 3.75 48.75 3.75H18.75C17.7554 3.75 16.8016 4.14509 16.0984 4.84835C15.3951 5.55161 15 6.50544 15 7.5H11.25C11.25 5.51088 12.0402 3.60322 13.4467 2.1967C14.8532 0.790176 16.7609 0 18.75 0Z" fill="#6574CD"/>
<path d="M3.75 22.5V20.625C3.75 20.1277 3.94754 19.6508 4.29917 19.2992C4.65081 18.9475 5.12772 18.75 5.625 18.75C6.12228 18.75 6.59919 18.9475 6.95083 19.2992C7.30246 19.6508 7.5 20.1277 7.5 20.625V22.5H9.375C9.87228 22.5 10.3492 22.6975 10.7008 23.0492C11.0525 23.4008 11.25 23.8777 11.25 24.375C11.25 24.8723 11.0525 25.3492 10.7008 25.7008C10.3492 26.0525 9.87228 26.25 9.375 26.25H1.875C1.37772 26.25 0.900806 26.0525 0.549175 25.7008C0.197544 25.3492 0 24.8723 0 24.375C0 23.8777 0.197544 23.4008 0.549175 23.0492C0.900806 22.6975 1.37772 22.5 1.875 22.5H3.75ZM3.75 33.75V31.875C3.75 31.3777 3.94754 30.9008 4.29917 30.5492C4.65081 30.1975 5.12772 30 5.625 30C6.12228 30 6.59919 30.1975 6.95083 30.5492C7.30246 30.9008 7.5 31.3777 7.5 31.875V33.75H9.375C9.87228 33.75 10.3492 33.9475 10.7008 34.2992C11.0525 34.6508 11.25 35.1277 11.25 35.625C11.25 36.1223 11.0525 36.5992 10.7008 36.9508C10.3492 37.3025 9.87228 37.5 9.375 37.5H1.875C1.37772 37.5 0.900806 37.3025 0.549175 36.9508C0.197544 36.5992 0 36.1223 0 35.625C0 35.1277 0.197544 34.6508 0.549175 34.2992C0.900806 33.9475 1.37772 33.75 1.875 33.75H3.75ZM3.75 43.125V45H1.875C1.37772 45 0.900806 45.1975 0.549175 45.5492C0.197544 45.9008 0 46.3777 0 46.875C0 47.3723 0.197544 47.8492 0.549175 48.2008C0.900806 48.5525 1.37772 48.75 1.875 48.75H9.375C9.87228 48.75 10.3492 48.5525 10.7008 48.2008C11.0525 47.8492 11.25 47.3723 11.25 46.875C11.25 46.3777 11.0525 45.9008 10.7008 45.5492C10.3492 45.1975 9.87228 45 9.375 45H7.5V43.125C7.5 42.6277 7.30246 42.1508 6.95083 41.7992C6.59919 41.4475 6.12228 41.25 5.625 41.25C5.12772 41.25 4.65081 41.4475 4.29917 41.7992C3.94754 42.1508 3.75 42.6277 3.75 43.125Z" fill="#6574CD"/>
</svg>
