<svg width="60" height="60" viewBox="0 0 60 60" fill="none" xmlns="http://www.w3.org/2000/svg">
<g clip-path="url(#clip0_785_340)">
<path d="M36.5699 23.2237C38.8162 25.4737 43.0574 24.8624 46.0499 21.8662C49.0424 18.8699 49.6499 14.6212 47.4074 12.3749C45.1612 10.1249 40.9199 10.7324 37.9274 13.7287C34.9349 16.7287 34.3274 20.9774 36.5699 23.2237Z" fill="#6574CD"/>
<path d="M59.2908 12.4198C57.9296 18.1723 54.2883 26.0173 45.6408 35.7373L44.7408 44.7673C44.5011 46.9308 43.5331 48.9487 41.9958 50.4898L33.0633 59.4373C32.7797 59.7241 32.4126 59.9138 32.0147 59.9794C31.6167 60.045 31.2082 59.9831 30.8475 59.8026C30.4868 59.622 30.1924 59.3321 30.0065 58.9742C29.8205 58.6163 29.7525 58.2087 29.8121 57.8098L30.8246 50.6885C30.9746 49.6385 30.7758 48.4648 30.3333 47.1035C30.0542 46.2705 29.7428 45.4486 29.3996 44.6398L29.0921 43.8823C26.0358 43.1435 23.1746 41.3998 20.8758 39.0935C18.5733 36.7873 16.8296 33.9223 16.0946 30.8623L15.3333 30.551C14.5257 30.2125 13.7064 29.9023 12.8771 29.621C11.5158 29.1748 10.3458 28.976 9.29581 29.126L2.18581 30.1385C1.78721 30.1971 1.38029 30.1284 1.02308 29.942C0.665878 29.7557 0.376641 29.4613 0.196633 29.1009C0.0166237 28.7405 -0.0449628 28.3324 0.0206585 27.9349C0.0862797 27.5374 0.275757 27.1707 0.562061 26.8873L9.49456 17.9398C11.0321 16.4023 13.0458 15.4273 15.2096 15.1873H15.2321L24.2321 14.2948C33.7683 5.81229 41.5758 2.18229 47.3358 0.779792C50.6733 -0.0339579 53.2983 -0.090208 55.1358 0.074792C56.0508 0.161042 56.7671 0.299792 57.2733 0.423542C57.5233 0.488542 57.7233 0.544792 57.8733 0.592292C58.5633 0.817292 58.9196 1.07979 59.1896 1.69854L59.2983 1.97229C59.5893 2.85028 59.7866 3.75656 59.8871 4.67604C60.0933 6.49479 60.0783 9.09354 59.2908 12.4198ZM41.1858 40.451L41.3358 40.301L40.9346 44.3548C40.7866 45.6495 40.2051 46.8561 39.2846 47.7785L34.4171 52.6535L34.6196 51.2285C34.8896 49.331 34.4921 47.5048 33.9746 45.911C33.7846 45.3432 33.5795 44.7805 33.3596 44.2235C36.1271 43.9798 38.8421 42.7985 41.1858 40.451ZM19.5183 18.7498C17.1746 21.0973 15.9933 23.816 15.7533 26.5873C15.1964 26.3674 14.6337 26.1623 14.0658 25.9723C12.4758 25.4548 10.6533 25.0573 8.75581 25.3273L7.33081 25.5298L12.2058 20.6548C13.1246 19.7323 14.3283 19.151 15.6183 19.0048L19.6683 18.6035L19.5183 18.7498ZM54.7908 3.89604C53.3658 3.76854 51.1646 3.79479 48.2433 4.50729C42.4008 5.93229 33.5546 10.1173 22.2296 21.461C19.9046 23.786 19.2333 26.486 19.6533 29.1523C20.0546 31.6873 21.4646 34.2598 23.5833 36.3823C25.6983 38.501 28.2708 39.911 30.7983 40.316C33.4608 40.736 36.1571 40.0648 38.4783 37.736C50.0246 26.1748 54.1983 17.321 55.5633 11.5348C56.2496 8.64354 56.2383 6.49104 56.0808 5.11104C56.0415 4.75481 55.9852 4.40065 55.9121 4.04979C55.5399 3.97964 55.1644 3.92832 54.7871 3.89604H54.7908Z" fill="#6574CD"/>
<path d="M26.2836 45.5209C23.789 44.1766 21.509 42.4678 19.5186 40.4509C17.385 38.336 15.5992 35.8972 14.2273 33.2246C10.0948 36.9446 6.85856 52.1771 7.33106 52.6496C7.79981 53.1221 22.0911 49.2896 26.2836 45.5171V45.5209Z" fill="#6574CD"/>
</g>
<defs>
<clipPath id="clip0_785_340">
<rect width="60" height="60" fill="white"/>
</clipPath>
</defs>
</svg>
