<svg width="60" height="60" viewBox="0 0 60 60" fill="none" xmlns="http://www.w3.org/2000/svg">
<g clip-path="url(#clip0_778_352)">
<path d="M46.8595 29.9999C46.86 32.5426 46.2859 35.0526 45.18 37.3422C44.0741 39.6318 42.4652 41.642 40.4733 43.2224L35.6133 31.8749L46.7095 27.7124C46.8095 28.4624 46.8595 29.2249 46.8595 29.9999Z" fill="#6574CD"/>
<path d="M60 30C60 37.9565 56.8393 45.5871 51.2132 51.2132C45.5871 56.8393 37.9565 60 30 60C22.0435 60 14.4129 56.8393 8.7868 51.2132C3.16071 45.5871 0 37.9565 0 30C0 22.0435 3.16071 14.4129 8.7868 8.7868C14.4129 3.16071 22.0435 0 30 0C37.9565 0 45.5871 3.16071 51.2132 8.7868C56.8393 14.4129 60 22.0435 60 30ZM56.25 30C56.2482 26.02 55.3414 22.0925 53.5981 18.5146C51.8549 14.9367 49.3209 11.802 46.1878 9.34764C43.0547 6.89326 39.4045 5.18345 35.5133 4.34753C31.6221 3.51161 27.5917 3.57146 23.7271 4.52255C19.8624 5.47365 16.2646 7.29108 13.2057 9.83741C10.1469 12.3837 7.70709 15.5923 6.07088 19.2204C4.43466 22.8485 3.64487 26.8011 3.76122 30.7794C3.87758 34.7577 4.89704 38.6575 6.7425 42.1837L14.1975 35.97C12.8044 32.2962 12.7368 28.2514 14.0066 24.5332C15.2763 20.8149 17.8037 17.6563 21.1529 15.602C24.5022 13.5476 28.4633 12.7264 32.3532 13.2798C36.2431 13.8333 39.8179 15.7268 42.4612 18.6337L28.1138 24.375L31.8637 33.75L36.8625 45.4125C34.7625 46.3537 32.4375 46.875 29.9888 46.875C27.9494 46.8762 25.9267 46.5078 24.0188 45.7875L17.8013 53.25C21.8024 55.3499 26.278 56.3814 30.7947 56.2446C35.3114 56.1078 39.7163 54.8074 43.5831 52.4691C47.4499 50.1309 50.6475 46.834 52.8667 42.8977C55.0858 38.9613 56.2511 34.5188 56.25 30ZM25.1437 30.5212C25.253 30.3584 25.3084 30.1655 25.3023 29.9696C25.2961 29.7736 25.2287 29.5845 25.1095 29.4289C24.9903 29.2733 24.8253 29.1589 24.6377 29.1019C24.4501 29.0449 24.2494 29.0482 24.0637 29.1113L18.4387 30.9862L19.035 32.7638L22.065 31.7513L19.8338 35.1038C19.7252 35.2663 19.6702 35.4587 19.6763 35.654C19.6825 35.8493 19.7496 36.0379 19.8682 36.1932C19.9867 36.3486 20.1509 36.463 20.3377 36.5205C20.5245 36.5779 20.7246 36.5756 20.91 36.5138L23.94 35.5013L21.7088 38.8538C21.6002 39.0163 21.5452 39.2087 21.5513 39.404C21.5575 39.5993 21.6246 39.7879 21.7432 39.9432C21.8617 40.0986 22.0259 40.213 22.2127 40.2705C22.3995 40.3279 22.5996 40.3256 22.785 40.2638L28.41 38.3888L27.8137 36.6112L24.7838 37.6237L27.0187 34.2712C27.128 34.1084 27.1834 33.9155 27.1773 33.7196C27.1711 33.5236 27.1037 33.3345 26.9845 33.1789C26.8653 33.0233 26.7003 32.9089 26.5127 32.8519C26.3251 32.7949 26.1244 32.7982 25.9387 32.8612L22.9088 33.8737L25.1437 30.5212Z" fill="#6574CD"/>
</g>
<defs>
<clipPath id="clip0_778_352">
<rect width="60" height="60" fill="white"/>
</clipPath>
</defs>
</svg>
