<svg width="21" height="21" viewBox="0 0 21 21" fill="none" xmlns="http://www.w3.org/2000/svg">
<path d="M4.32638 0.0505988C4.30396 0.0970756 4.19191 0.434032 4.07986 0.782608C3.5532 2.49063 2.37664 3.72226 0.707033 4.31484C0.303639 4.45427 -0.0213172 4.61694 0.00109359 4.67504C0.012299 4.74475 0.348461 4.90742 0.76306 5.04685C2.28699 5.58133 3.47477 6.80135 4.01262 8.39318C4.18071 8.88118 4.3712 9.26462 4.42722 9.253C4.48325 9.24138 4.64013 8.8928 4.77459 8.47451C5.31245 6.80135 6.47781 5.60457 8.09139 5.04685C8.49478 4.90742 8.81974 4.74475 8.83094 4.68666C8.84215 4.62856 8.47237 4.43103 8.00175 4.25675C6.46661 3.69903 5.22281 2.38606 4.76339 0.840704C4.55048 0.108695 4.42722 -0.11207 4.32638 0.0505988Z" fill="#FBB034"/>
<path d="M13.3691 4.3497C13.2347 5.01199 12.8537 6.18553 12.6296 6.63868C11.5426 8.86957 9.42483 10.6124 7.10531 11.2283C6.48902 11.3909 6.32094 11.4723 6.32094 11.6466C6.32094 11.8208 6.48902 11.9022 7.10531 12.0648C9.42483 12.6807 11.5426 14.4235 12.6296 16.6544C12.8537 17.1076 13.2347 18.2811 13.3691 18.9318C13.4139 19.1525 13.5148 19.2571 13.6605 19.2571C13.8061 19.2571 13.907 19.1525 13.9518 18.9318C14.1423 18.0255 14.2768 17.6304 14.5569 16.9798C15.6326 14.5049 17.672 12.7504 20.2717 12.0648C20.8431 11.9022 21 11.8208 21 11.6466C21 11.4723 20.8319 11.3909 20.2156 11.2283C18.9606 10.8913 17.5151 10.0896 16.5851 9.1949C15.1732 7.83546 14.4 6.41792 13.9518 4.3497C13.907 4.14055 13.8061 4.03598 13.6605 4.03598C13.5148 4.03598 13.4139 4.14055 13.3691 4.3497Z" fill="#FBB034"/>
<path d="M5.60379 15.5622C5.30124 16.5963 4.60651 17.3516 3.59802 17.7466C3.30668 17.8628 3.08258 17.9906 3.09378 18.0487C3.10499 18.0952 3.3403 18.223 3.60923 18.3276C4.60651 18.7226 5.30124 19.4895 5.60379 20.512C5.67102 20.7792 5.77187 21 5.81669 21C5.86151 21 5.96236 20.7676 6.0408 20.4771C6.30973 19.5011 7.11652 18.6297 8.08018 18.2811C8.29308 18.2114 8.48358 18.1068 8.50599 18.0487C8.5396 18.0022 8.28188 17.8512 7.94572 17.7118C7.11652 17.3981 6.34335 16.5615 6.08562 15.7133C5.97357 15.3647 5.85031 15.0742 5.81669 15.0742C5.77187 15.0742 5.67102 15.295 5.60379 15.5622Z" fill="#FBB034"/>
</svg>
